# xmcd
#
# Track frame offsets:
#	182
#	12270
#	24527
#	38715
#	51097
#	63752
#	75777
#	89082
#	100732
#	111840
#	123992
#	136220
#	146887
#	157775
#	167347
#	177227
#	188470
#	199977
#	213025
#	225565
#
# Disc length: 3177 seconds
#
# Revision: 1
# Processed by: cddbd v1.5.2PL0 Copyright (c) Steve Scherf et al.
# Submitted via: EasyCDDAExtractor 7.0.3.1
#
DISCID=f50c6714
DTITLE=Guy Mitchell - Singing the Blues
DYEAR=1999
DGENRE=Country
TTITLE0=My Heart Cries For You
TTITLE1=The Roving Kind
TTITLE2=Sparrow in the Tree Top
TTITLE3=My Truly, Truly Fair
TTITLE4=Pittsburgh, Pennsylvania
TTITLE5=Feet Up (Pat Him on the Po-Po)
TTITLE6=She Wears Red Feathers
TTITLE7=Pretty Little Black Eyed Susie
TTITLE8=Cloud Lucky Seven
TTITLE9=Chicka-Boom
TTITLE10=The Cuff Of My Shirt
TTITLE11=Sippin Soda
TTITLE12=Singing the Blues
TTITLE13=Knee Deep in the Blues
TTITLE14=Rock-A-Billy
TTITLE15=Call Rosie On the Phone
TTITLE16=Heartaches By the Number
TTITLE17=My Shoes Keep Walking Back To You
TTITLE18=Side By Side
TTITLE19=Music, Music, Music
EXTD=
EXTT0=
EXTT1=
EXTT2=
EXTT3=
EXTT4=
EXTT5=
EXTT6=
EXTT7=
EXTT8=
EXTT9=
EXTT10=
EXTT11=
EXTT12=
EXTT13=
EXTT14=
EXTT15=
EXTT16=
EXTT17=
EXTT18=
EXTT19=
PLAYORDER=
